<svg width="931" height="768" viewBox="0 0 931 768" fill="none" xmlns="http://www.w3.org/2000/svg">
<path d="M453.922 250.512V376.71C401.822 370.921 361.3 326.925 361.3 273.667C361.3 242.407 375.193 213.463 398.349 194.938L453.922 250.512Z" fill="black"/>
<path d="M569.699 273.667C569.699 326.925 529.177 372.078 477.077 376.71V250.512L532.65 194.938C555.806 213.463 569.699 242.407 569.699 273.667Z" fill="black"/>
<path d="M582.435 145.154L550.017 177.571C576.646 200.727 592.855 235.46 592.855 273.667C592.855 344.291 536.124 401.022 465.5 401.022C394.875 401.022 338.144 344.291 338.144 273.667C338.144 235.46 355.511 201.885 380.982 177.571L348.564 145.154C313.831 177.571 291.833 222.725 291.833 273.667C291.833 369.762 369.404 447.334 465.5 447.334C561.595 447.334 639.166 369.762 639.166 273.667C639.166 222.725 617.169 177.571 582.435 145.154Z" fill="black"/>
<path d="M465.499 215.778C497.47 215.778 523.388 189.86 523.388 157.889C523.388 125.918 497.47 100 465.499 100C433.528 100 407.61 125.918 407.61 157.889C407.61 189.86 433.528 215.778 465.499 215.778Z" fill="black"/>
<path d="M236.971 489.334L209.491 573.334H188.611L170.131 516.454L151.051 573.334H130.291L102.691 489.334H122.851L141.811 548.374L161.611 489.334H179.611L198.811 548.854L218.371 489.334H236.971ZM247.823 489.334H267.263V573.334H247.823V489.334ZM317.798 540.334L306.518 552.094V573.334H287.198V489.334H306.518V528.574L343.718 489.334H365.318L330.518 526.774L367.358 573.334H344.678L317.798 540.334ZM376.026 489.334H395.466V573.334H376.026V489.334ZM491.841 573.334L491.721 522.934L467.001 564.454H458.241L433.641 524.014V573.334H415.401V489.334H431.481L462.921 541.534L493.881 489.334H509.841L510.081 573.334H491.841ZM595.051 557.734V573.334H530.011V489.334H593.491V504.934H549.331V523.174H588.331V538.294H549.331V557.734H595.051ZM610.519 489.334H648.679C657.799 489.334 665.839 491.094 672.799 494.614C679.839 498.054 685.279 502.934 689.119 509.254C693.039 515.574 694.999 522.934 694.999 531.334C694.999 539.734 693.039 547.094 689.119 553.414C685.279 559.734 679.839 564.654 672.799 568.174C665.839 571.614 657.799 573.334 648.679 573.334H610.519V489.334ZM647.719 557.374C656.119 557.374 662.799 555.054 667.759 550.414C672.799 545.694 675.319 539.334 675.319 531.334C675.319 523.334 672.799 517.014 667.759 512.374C662.799 507.654 656.119 505.294 647.719 505.294H629.959V557.374H647.719ZM709.659 489.334H729.099V573.334H709.659V489.334ZM804.354 555.334H765.354L757.914 573.334H737.994L775.434 489.334H794.634L832.194 573.334H811.794L804.354 555.334ZM798.234 540.574L784.914 508.414L771.594 540.574H798.234Z" fill="black"/>
<path d="M327.665 653.334V611.334H333.665V653.334H327.665ZM373.479 653.334V616.554H359.079V611.334H393.819V616.554H379.419V653.334H373.479ZM410.785 653.334L429.805 611.334H435.745L454.825 653.334H448.525L431.545 614.694H433.945L416.965 653.334H410.785ZM418.885 642.834L420.505 638.034H444.145L445.885 642.834H418.885ZM479.99 653.334V611.334H485.99V648.114H508.73V653.334H479.99ZM534.515 653.334V611.334H540.515V653.334H534.515ZM565.629 653.334L584.649 611.334H590.589L609.669 653.334H603.369L586.389 614.694H588.789L571.809 653.334H565.629ZM573.729 642.834L575.349 638.034H598.989L600.729 642.834H573.729Z" fill="black"/>
</svg>
