<?xml version="1.0" encoding="UTF-8" standalone="no"?>
<svg
   width="729.50299"
   height="553.33398"
   viewBox="0 0 729.50299 553.33398"
   fill="none"
   version="1.1"
   id="svg6"
   sodipodi:docname="wikimedia-italia.svg"
   inkscape:version="1.4.2 (ebf0e940, 2025-05-08)"
   xmlns:inkscape="http://www.inkscape.org/namespaces/inkscape"
   xmlns:sodipodi="http://sodipodi.sourceforge.net/DTD/sodipodi-0.dtd"
   xmlns="http://www.w3.org/2000/svg"
   xmlns:svg="http://www.w3.org/2000/svg">
  <defs
     id="defs6" />
  <sodipodi:namedview
     id="namedview6"
     pagecolor="#505050"
     bordercolor="#eeeeee"
     borderopacity="1"
     inkscape:showpageshadow="0"
     inkscape:pageopacity="0"
     inkscape:pagecheckerboard="0"
     inkscape:deskcolor="#505050"
     inkscape:zoom="0.18118243"
     inkscape:cx="480.179"
     inkscape:cy="1354.9879"
     inkscape:window-width="1440"
     inkscape:window-height="847"
     inkscape:window-x="0"
     inkscape:window-y="25"
     inkscape:window-maximized="1"
     inkscape:current-layer="svg6" />
  <path
     d="M 351.231,150.512 V 276.71 c -52.1,-5.789 -92.622,-49.785 -92.622,-103.043 0,-31.26 13.893,-60.204 37.049,-78.729 z"
     fill="#000000"
     id="path1" />
  <path
     d="m 467.008,173.667 c 0,53.258 -40.522,98.411 -92.622,103.043 V 150.512 l 55.573,-55.574 c 23.156,18.525 37.049,47.469 37.049,78.729 z"
     fill="#000000"
     id="path2" />
  <path
     d="m 479.744,45.154 -32.418,32.417 c 26.629,23.156 42.838,57.889 42.838,96.096 0,70.624 -56.731,127.355 -127.355,127.355 -70.625,0 -127.356,-56.731 -127.356,-127.355 0,-38.207 17.367,-71.782 42.838,-96.096 L 245.873,45.154 c -34.733,32.417 -56.731,77.571 -56.731,128.513 0,96.095 77.571,173.667 173.667,173.667 96.095,0 173.666,-77.572 173.666,-173.667 0,-50.942 -21.997,-96.096 -56.731,-128.513 z"
     fill="#000000"
     id="path3" />
  <path
     d="m 362.808,115.778 c 31.971,0 57.889,-25.918 57.889,-57.889 C 420.697,25.918 394.779,0 362.808,0 c -31.971,0 -57.889,25.918 -57.889,57.889 0,31.971 25.918,57.889 57.889,57.889 z"
     fill="#000000"
     id="path4" />
  <path
     d="m 134.28,389.334 -27.48,84 H 85.92 l -18.48,-56.88 -19.08,56.88 H 27.6 l -27.6,-84 h 20.16 l 18.96,59.04 19.8,-59.04 h 18 l 19.2,59.52 19.56,-59.52 z m 10.852,0 h 19.44 v 84 h -19.44 z m 69.975,51 -11.28,11.76 v 21.24 h -19.32 v -84 h 19.32 v 39.24 l 37.2,-39.24 h 21.6 l -34.8,37.44 36.84,46.56 h -22.68 z m 58.228,-51 h 19.44 v 84 h -19.44 z m 115.815,84 -0.12,-50.4 -24.72,41.52 h -8.76 l -24.6,-40.44 v 49.32 h -18.24 v -84 h 16.08 l 31.44,52.2 30.96,-52.2 h 15.96 l 0.24,84 z m 103.21,-15.6 v 15.6 h -65.04 v -84 h 63.48 v 15.6 h -44.16 v 18.24 h 39 v 15.12 h -39 v 19.44 z m 15.468,-68.4 h 38.16 c 9.12,0 17.16,1.76 24.12,5.28 7.04,3.44 12.48,8.32 16.32,14.64 3.92,6.32 5.88,13.68 5.88,22.08 0,8.4 -1.96,15.76 -5.88,22.08 -3.84,6.32 -9.28,11.24 -16.32,14.76 -6.96,3.44 -15,5.16 -24.12,5.16 h -38.16 z m 37.2,68.04 c 8.4,0 15.08,-2.32 20.04,-6.96 5.04,-4.72 7.56,-11.08 7.56,-19.08 0,-8 -2.52,-14.32 -7.56,-18.96 -4.96,-4.72 -11.64,-7.08 -20.04,-7.08 h -17.76 v 52.08 z m 61.94,-68.04 h 19.44 v 84 h -19.44 z m 94.695,66 h -39 l -7.44,18 h -19.92 l 37.44,-84 h 19.2 l 37.56,84 h -20.4 z m -6.12,-14.76 -13.32,-32.16 -13.32,32.16 z"
     fill="#000000"
     id="path5" />
  <path
     d="m 224.974,553.334 v -42 h 6 v 42 z m 45.814,0 v -36.78 h -14.4 v -5.22 h 34.74 v 5.22 h -14.4 v 36.78 z m 37.306,0 19.02,-42 h 5.94 l 19.08,42 h -6.3 l -16.98,-38.64 h 2.4 l -16.98,38.64 z m 8.1,-10.5 1.62,-4.8 h 23.64 l 1.74,4.8 z m 61.105,10.5 v -42 h 6 v 36.78 h 22.74 v 5.22 z m 54.525,0 v -42 h 6 v 42 z m 31.114,0 19.02,-42 h 5.94 l 19.08,42 h -6.3 l -16.98,-38.64 h 2.4 l -16.98,38.64 z m 8.1,-10.5 1.62,-4.8 h 23.64 l 1.74,4.8 z"
     fill="#000000"
     id="path6" />
</svg>
